<svg width="33" height="32" viewBox="0 0 33 32" fill="none" xmlns="http://www.w3.org/2000/svg">
<g opacity="0.9">
<path d="M16.5409 2.56592H16.5345L11.6139 2.57882C10.7137 2.58205 10.1781 3.58552 10.6782 4.3341L12.8852 7.64459H16.5345H16.5474H20.1967L22.4037 4.3341C22.9038 3.58552 22.3681 2.58205 21.468 2.57882L16.5474 2.56592H16.5409Z" fill="#9B51E0"/>
<path fill-rule="evenodd" clip-rule="evenodd" d="M2.40626 26.8526C2.41271 25.2006 2.6547 22.9484 3.64204 20.6769C5.55219 16.2694 9.01433 11.4649 12.641 9.14502H16.5355H20.1719C23.7986 11.4649 27.2607 16.2694 29.1741 20.6769C30.1582 22.9484 30.4034 25.2006 30.4067 26.8526C30.4099 28.2788 29.2515 29.4339 27.8254 29.4339H16.5355H4.98753C3.56138 29.4339 2.40303 28.2788 2.40626 26.8526Z" fill="#9B51E0"/>
<circle cx="16.5168" cy="19.6007" r="8.19645" fill="white"/>
<path d="M25.7633 19.3427C26.3051 18.7477 26.5306 17.9229 26.3374 17.0759C26.1441 16.2293 25.5831 15.5834 24.8366 15.2826C25.0668 14.5113 24.9115 13.6704 24.37 12.9914C23.8289 12.3128 23.0415 11.975 22.2402 12.0268C22.1127 11.2325 21.6082 10.5417 20.826 10.1647C20.0443 9.78866 19.1894 9.82352 18.4883 10.22C18.0291 9.5597 17.2747 9.1562 16.4063 9.15576C15.5375 9.15576 14.7828 9.55926 14.3236 10.22C13.6224 9.82348 12.7675 9.78862 11.9858 10.1647C11.2036 10.5417 10.6992 11.2324 10.5716 12.0268C9.77024 11.9741 8.9833 12.3123 8.44184 12.9913C7.90038 13.6704 7.74495 14.5117 7.97523 15.2826C7.22876 15.5838 6.66768 16.2293 6.47445 17.0758C6.28121 17.9224 6.50668 18.7477 7.04858 19.3426C6.50668 19.9377 6.28121 20.7625 6.47445 21.6096C6.66772 22.4561 7.22876 23.1021 7.97523 23.4028C7.74499 24.1741 7.90034 25.0151 8.44184 25.694C8.9829 26.3726 9.77067 26.7091 10.5716 26.6586C10.6991 27.453 11.2036 28.1437 11.9858 28.5207C12.7679 28.8972 13.6228 28.8619 14.3236 28.4654C14.7828 29.1261 15.5375 29.5296 16.4064 29.5296C17.2747 29.5292 18.0291 29.1257 18.4883 28.4654C19.189 28.8615 20.0439 28.8968 20.8261 28.5207C21.6082 28.1437 22.1127 27.453 22.2403 26.6586C23.0407 26.7082 23.8286 26.3727 24.37 25.694C24.9115 25.0151 25.0669 24.1737 24.8366 23.4028C25.5831 23.1016 26.1442 22.4561 26.3374 21.6096C26.5307 20.763 26.3052 19.9377 25.7633 19.3427ZM11.0574 16.2227C11.0574 14.994 12.0572 13.9942 13.286 13.9942C14.5147 13.9942 15.5145 14.994 15.5145 16.2227C15.5145 17.4515 14.5147 18.4513 13.286 18.4513C12.0572 18.4513 11.0574 17.4515 11.0574 16.2227ZM13.7586 22.9354C13.628 23.066 13.457 23.1313 13.286 23.1313C13.1149 23.1313 12.9438 23.066 12.8133 22.9354C12.5521 22.6742 12.5521 22.2511 12.8133 21.99L19.0533 15.75C19.3144 15.4888 19.7375 15.4888 19.9987 15.75C20.2598 16.0112 20.2598 16.4343 19.9987 16.6954L13.7586 22.9354ZM19.5259 24.6913C18.2972 24.6913 17.2973 23.6914 17.2973 22.4627C17.2973 21.234 18.2972 20.2342 19.5259 20.2342C20.7546 20.2342 21.7544 21.234 21.7544 22.4627C21.7544 23.6914 20.7547 24.6913 19.5259 24.6913Z" fill="#9B51E0"/>
</g>
</svg>
