<svg width="33" height="32" viewBox="0 0 33 32" fill="none" xmlns="http://www.w3.org/2000/svg">
<g clip-path="url(#clip0_1187_17878)">
<path d="M10.6953 22.0835C9.58704 22.0835 8.68555 22.9851 8.68555 24.0934C8.68555 25.2019 9.58704 26.1034 10.6953 26.1034C11.8038 26.1034 12.7053 25.2019 12.7053 24.0934C12.7053 22.9851 11.8038 22.0835 10.6953 22.0835Z" fill="#EF8D91"/>
<path d="M25.6308 22.0835C24.5226 22.0835 23.6211 22.9851 23.6211 24.0934C23.6211 25.2019 24.5226 26.1034 25.6308 26.1034C26.7393 26.1034 27.6408 25.2019 27.6408 24.0934C27.6408 22.9851 26.7393 22.0835 25.6308 22.0835Z" fill="#EF8D91"/>
<path d="M30.6585 14.7354L30.6498 12.1761C30.6477 11.5895 30.1717 11.1147 29.5848 11.1147H27.9872L27.082 14.7354H30.6585Z" fill="#EF8D91"/>
<path d="M27.1097 7.19281C27.1798 6.87744 27.1029 6.54742 26.9009 6.29563C26.6986 6.04361 26.3931 5.89697 26.07 5.89697H9.3781C8.87882 5.89697 8.44665 6.24359 8.33859 6.73091L8.13333 7.65406H5.86381C5.27574 7.65406 4.79887 8.13083 4.79887 8.7189C4.79887 9.30697 5.27574 9.78384 5.86381 9.78384H7.65991L7.15717 12.0467H3.22828C2.64 12.0467 2.16334 12.5237 2.16334 13.1116C2.16334 13.6998 2.64 14.1766 3.22828 14.1766H6.68396L6.18101 16.4395H1.47119C0.883125 16.4395 0.40625 16.9164 0.40625 17.5045C0.40625 18.0925 0.883125 18.5694 1.47119 18.5694H5.70769L4.8243 22.5446C4.75437 22.8599 4.83109 23.19 5.03311 23.4419C5.23523 23.6939 5.5408 23.8405 5.86381 23.8405H6.56447C6.6956 21.6751 8.49816 19.9537 10.6957 19.9537C12.8934 19.9537 14.6959 21.6751 14.8272 23.8405H21.4995C21.5947 22.2728 22.566 20.9381 23.9291 20.3207L27.1097 7.19281Z" fill="#EF8D91"/>
<path d="M32.206 16.8545C32.052 16.6412 31.8264 16.4957 31.5749 16.4395H26.6568L25.7773 19.9571C27.9035 20.0308 29.6269 21.7151 29.7624 23.8255C30.1384 23.7617 30.4679 23.498 30.5963 23.1108L32.3535 17.8129C32.4609 17.4881 32.4062 17.1318 32.206 16.8545Z" fill="#EF8D91"/>
</g>
<defs>
<clipPath id="clip0_1187_17878">
<rect width="32" height="32" fill="white" transform="translate(0.40625)"/>
</clipPath>
</defs>
</svg>
