<svg width="33" height="32" viewBox="0 0 33 32" fill="none" xmlns="http://www.w3.org/2000/svg">
<path d="M26.5451 10.0417H25.0744C26.6214 8.09695 26.4967 5.25044 24.6987 3.45219C23.7622 2.51565 22.517 2 21.1926 2C19.8683 2 18.6231 2.51565 17.6866 3.45219C17.2318 3.90709 16.7713 4.54701 16.3626 5.26915C15.9539 4.54738 15.4936 3.90784 15.0388 3.45307C14.1023 2.51666 12.8572 2.00163 11.5328 2.00163C10.2084 2.00163 8.96331 2.51917 8.02678 3.45558C6.23078 5.2517 6.1045 8.0967 7.64581 10.0417H6.18057C4.7329 10.0417 3.51758 11.2153 3.51758 12.663V12.6924C3.51758 14.14 4.7329 15.3137 6.18057 15.3137H26.5451C27.9927 15.3137 29.1245 14.14 29.1245 12.6924V12.663C29.1245 11.2153 27.9927 10.0417 26.5451 10.0417ZM18.4981 8.08138C18.9177 6.97288 19.5219 6.0548 19.9056 5.6712C20.2493 5.32751 20.7065 5.1381 21.1926 5.1381C21.6789 5.1381 22.136 5.32751 22.4797 5.6712C23.1893 6.38079 23.1893 7.53573 22.4797 8.24532C21.6938 9.0311 19.6217 10.028 18.4134 10.028C18.2811 10.028 18.1951 10.0151 18.1445 10.0037C18.0886 9.76855 18.1104 9.10579 18.4981 8.08138ZM10.2459 8.25222C9.53633 7.54264 9.53633 6.38091 10.2459 5.6712C10.5897 5.32751 11.0468 5.1381 11.5329 5.1381C12.0191 5.1381 12.4762 5.32915 12.8199 5.67296C13.2036 6.05668 13.8078 6.9764 14.2274 8.0849C14.6154 9.1093 14.6371 9.77546 14.581 10.0106C14.5305 10.0221 14.4446 10.0418 14.3124 10.0418C14.3123 10.0418 14.3123 10.0418 14.3121 10.0418C13.1038 10.0417 11.0317 9.03788 10.2459 8.25222Z" fill="#F5D86E"/>
<path d="M5.27344 28.4937C5.27344 29.3243 5.99093 30 6.82152 30H25.9012C26.7318 30 27.3657 29.3243 27.3657 28.4937V18.0752H5.27344V28.4937Z" fill="#F5D86E"/>
</svg>
