<svg width="33" height="32" viewBox="0 0 33 32" fill="none" xmlns="http://www.w3.org/2000/svg">
<g clip-path="url(#clip0_1187_17849)">
<path d="M3.78706 25.6105C3.77034 25.6105 3.77034 25.6105 3.75361 25.6105C3.65327 25.6105 3.56965 25.5604 3.50276 25.4767C2.56623 24.2055 1.83039 22.8171 1.31196 21.3284C0.325258 18.5182 0.141297 15.4906 0.760074 12.58C1.4123 9.58584 2.90071 6.85929 5.07479 4.68475C7.81747 1.94148 11.4465 0.302215 15.3264 0.0345786C19.1561 -0.21633 22.9524 0.904395 25.9961 3.19603C26.0797 3.26294 26.1299 3.34657 26.1299 3.44694C26.1299 3.5473 26.0965 3.64766 26.0296 3.71457L22.919 6.82584C22.8019 6.94293 22.6179 6.95966 22.4841 6.87602C18.1527 3.98221 12.3329 4.55093 8.63693 8.24766C6.36251 10.5226 5.20857 13.7007 5.45943 16.8956C6.57992 15.7749 7.60006 14.7546 8.16867 14.1858L6.68026 13.1655C6.56319 13.0818 6.51302 12.9647 6.52975 12.8309C6.54647 12.6971 6.64681 12.5967 6.7806 12.5633C9.65708 11.7938 12.4667 11.0411 15.3431 10.2717C15.4602 10.2382 15.594 10.2717 15.6776 10.3553C15.7612 10.4389 15.7947 10.5727 15.7612 10.6898C14.9919 13.5669 14.2394 16.3771 13.4701 19.2542C13.4366 19.388 13.3363 19.4884 13.2025 19.5051C13.0687 19.5218 12.9349 19.4716 12.868 19.3546L11.781 17.7655C10.8779 18.6687 8.93796 20.6091 7.14852 22.3989L7.03146 22.516C5.82735 23.7204 4.70686 24.8411 4.02119 25.5269C3.97102 25.5771 3.8874 25.6105 3.78706 25.6105ZM16.4302 0.703669C12.4667 0.703669 8.53659 2.20912 5.5765 5.16984C1.42902 9.3182 0.0242316 15.5742 1.96418 21.1109C2.41572 22.3989 3.05122 23.62 3.82051 24.7575C4.50618 24.0716 5.49288 23.0847 6.54647 22.0476L6.66354 21.9305C8.6871 19.9066 10.8946 17.6986 11.5803 16.996C11.6472 16.9291 11.7475 16.8789 11.8479 16.8956C11.9482 16.9124 12.0486 16.9626 12.0987 17.0462L12.9851 18.3509C13.6373 15.9087 14.2728 13.5167 14.925 11.0913C12.4834 11.7437 10.0919 12.3793 7.66696 13.0317L8.88779 13.868C8.97141 13.9182 9.02158 14.0186 9.0383 14.1189C9.05502 14.2193 9.00485 14.3196 8.93796 14.3866C8.45297 14.8716 6.99801 16.3436 5.44271 17.8993C5.35909 17.9829 5.20858 18.0164 5.09151 17.9829C4.97444 17.9495 4.8741 17.8324 4.85738 17.6986C4.60652 15.9422 4.75704 14.1189 5.29219 12.4295C5.8608 10.6564 6.81405 9.08402 8.13522 7.76257C11.9817 3.9153 18.0356 3.24621 22.6012 6.15675L25.2436 3.51384C22.6347 1.62367 19.5241 0.703669 16.4302 0.703669Z" fill="black"/>
<path d="M32.0334 19.4213C31.3812 22.4155 29.8928 25.142 27.7187 27.3165C24.976 30.0598 21.347 31.6991 17.4671 31.9667C17.1159 31.9834 16.7647 32.0002 16.3968 32.0002C12.935 32.0002 9.55677 30.8794 6.79736 28.8053C6.71374 28.7384 6.66357 28.6547 6.66357 28.5544C6.66357 28.454 6.69702 28.3536 6.76392 28.2867L9.87452 25.1755C9.99159 25.0584 10.1755 25.0416 10.3093 25.1253C14.6408 28.0191 20.4606 27.4504 24.1566 23.7536C26.431 21.4787 27.5849 18.3006 27.3173 15.1056C26.2136 16.2096 25.2101 17.2133 24.6583 17.7653C25.1098 18.0831 25.6115 18.4176 26.1467 18.7856C26.2637 18.8693 26.3139 18.9864 26.2972 19.1202C26.2805 19.254 26.1801 19.3544 26.0463 19.3878L17.4838 21.6795C17.3667 21.7129 17.2329 21.6795 17.1493 21.5958C17.0657 21.5122 17.0323 21.3784 17.0657 21.2613C17.835 18.3842 18.5876 15.574 19.3569 12.6969C19.3903 12.5631 19.5074 12.4627 19.6244 12.446C19.7582 12.4293 19.892 12.4795 19.9589 12.5966C20.2098 12.9646 20.4439 13.3158 20.6947 13.6671L21.0459 14.1856C21.9323 13.2991 23.8555 11.3755 25.6282 9.60238C26.8658 8.36457 28.0364 7.19366 28.7556 6.47439C28.8225 6.40748 28.9228 6.37402 29.0231 6.37402C29.1235 6.37402 29.2071 6.44093 29.274 6.50784C30.2105 7.77911 30.9464 9.16748 31.4648 10.6562C32.4849 13.4664 32.6689 16.494 32.0334 19.4213Z" fill="black"/>
</g>
<defs>
<clipPath id="clip0_1187_17849">
<rect width="32" height="32" fill="white" transform="translate(0.40625)"/>
</clipPath>
</defs>
</svg>
