<svg width="33" height="32" viewBox="0 0 33 32" fill="none" xmlns="http://www.w3.org/2000/svg">
<path d="M29.2027 7.93757C29.1754 7.0792 28.4649 6.26825 27.6244 6.12165C27.6244 6.12165 24.3657 5.60645 22.5371 4.95576C20.2541 4.14339 17.9949 2.35762 17.9949 2.35762C17.2903 1.85446 16.2094 1.88567 15.5559 2.4296C15.5559 2.4296 13.9565 4.04336 10.9723 4.98536C8.21534 6.0933 6.01184 6.20674 6.01184 6.20674C5.1803 6.31511 4.46447 7.08274 4.44835 7.94093C4.44835 7.94093 4.33637 12.3528 4.47766 16.2249C4.53104 23.1519 12.7316 30 16.8755 30C20.9545 30 28.0036 25.2289 29.1124 16.3256C29.3864 11.0397 29.2027 7.93757 29.2027 7.93757ZM22.84 14.0144L15.7894 21.1509C15.489 21.4549 14.9793 21.49 14.6339 21.2154L10.952 18.2896C10.2756 17.7521 10.2051 16.8166 10.8036 16.1906C11.398 15.5688 12.4187 15.4866 13.1088 16.0266L14.8179 17.3644L20.6918 11.8305C21.3036 11.2541 22.2763 11.2704 22.8736 11.8404C22.865 11.8315 22.8627 11.8194 22.8538 11.8105L22.9036 11.8604C22.8948 11.8516 22.8825 11.849 22.8736 11.8404C23.4479 12.444 23.4399 13.4072 22.84 14.0144Z" fill="#AAD186"/>
</svg>
